<mxfile host="app.diagrams.net" modified="2023-10-03T08:51:57.361Z" agent="Mozilla/5.0 (Windows NT 10.0; Win64; x64) AppleWebKit/537.36 (KHTML, like Gecko) Chrome/117.0.0.0 Safari/537.36" version="22.0.0" etag="pNXqs4Ts6FNOoFhp-Tjh" type="github">
  <diagram name="Page-1" id="XVQmig1v1uL9WuiAcc87">
    <mxGraphModel>
      <root>
        <mxCell id="0" />
        <mxCell id="1" parent="0" />
      </root>
    </mxGraphModel>
  </diagram>
</mxfile>
